# xmcd
#
# Track frame offsets:
#	150
#	10748
#	23272
#	35584
#	48947
#	60442
#	72960
#	86401
#	95841
#	108642
#	119739
#	132815
#	149862
#
# Disc length: 2167 seconds
# Revision: 0
# Processed by: cddbd v1.5.2PL0 Copyright (c) Steve Scherf et al.
# Submitted via: dBpowerAMP V12.0
#
DISCID=b308750d
DTITLE=Maxim Turbulenc - Všecky pecky
DYEAR=2010
DGENRE=Country
TTITLE0=Do rána toulám se
TTITLE1=Kalifornie
TTITLE2=Ruty šuty
TTITLE3=Whisky to je moje gusto
TTITLE4=Bessie
TTITLE5=La Cucaracha
TTITLE6=Generál
TTITLE7=Jesse james
TTITLE8=Posázavskej Den
TTITLE9=Teď už přijede tou dlouhou cestou k nám
TTITLE10=Láska je věc kouzelná
TTITLE11=Snídaně v trávě
TTITLE12=Zvědněte kotvy
EXTD=
EXTT0=
EXTT1=
EXTT2=
EXTT3=
EXTT4=
EXTT5=
EXTT6=
EXTT7=
EXTT8=
EXTT9=
EXTT10=
EXTT11=
EXTT12=
PLAYORDER=
